<?xml version="1.0" encoding="utf-8"?>
<!-- Generator: Adobe Illustrator 28.3.0, SVG Export Plug-In . SVG Version: 6.00 Build 0)  -->
<svg version="1.1" id="Layer_1" xmlns="http://www.w3.org/2000/svg" xmlns:xlink="http://www.w3.org/1999/xlink" x="0px" y="0px"
	 viewBox="0 0 409.6 409.6" style="enable-background:new 0 0 409.6 409.6;" xml:space="preserve">
<g>
	<path d="M216.43,409.6c-7.99,0-15.97,0-23.96,0c-1.03-0.23-2.04-0.58-3.08-0.66c-31.98-2.26-61.9-11.4-89.2-28.13
		c-52.96-32.46-85.57-79.24-97.01-140.46C1.75,232.69,1.04,224.9,0,217.16c0-7.99,0-15.97,0-23.96c0.25-1.41,0.53-2.82,0.74-4.24
		c1.28-8.8,2.01-17.72,3.89-26.39c10.67-49.09,35.89-89.31,75.88-119.6C130.26,5.28,186.29-7.21,247.38,5.52
		c48.9,10.19,88.66,35.82,119.07,75.35c32.84,42.68,46.5,91.28,41.36,144.77c-4.16,43.34-20.99,81.61-49.87,114.27
		c-31.67,35.81-71.11,58.12-118.25,66.51C231.98,407.79,224.18,408.55,216.43,409.6z M204.53,32.52
		C109.34,32.41,32,109.62,31.76,205c-0.24,95.05,77,172.48,172.41,172.85c95.14,0.37,173-77.35,172.98-172.68
		C377.12,109.89,299.87,32.63,204.53,32.52z"/>
	<path d="M188.55,158.9c0-15.57-0.13-31.14,0.05-46.7c0.14-12,11.04-19.62,21.69-15.43c6.47,2.54,10.05,8.38,10.06,16.6
		c0.02,26.35,0.15,52.69-0.12,79.04c-0.05,4.71,1.49,7.38,5.16,10.07c17.06,12.5,33.89,25.32,50.82,37.99
		c5.89,4.4,8.68,10.1,6.85,17.37c-2.74,10.88-15.07,15.38-24.45,8.91c-5.91-4.08-11.54-8.55-17.29-12.86
		c-14.48-10.85-28.82-21.88-43.48-32.48c-6.54-4.73-9.51-10.54-9.36-18.59C188.75,188.17,188.55,173.53,188.55,158.9z"/>
</g>
</svg>
